<?xml version="1.0" standalone="no"?>
<!DOCTYPE svg PUBLIC "-//W3C//DTD SVG 20010904//EN"
 "http://www.w3.org/TR/2001/REC-SVG-20010904/DTD/svg10.dtd">
<svg version="1.0" xmlns="http://www.w3.org/2000/svg"
 width="512.000000pt" height="512.000000pt" viewBox="0 0 512.000000 512.000000"
 preserveAspectRatio="xMidYMid meet">
<metadata>
Created by potrace 1.11, written by Peter Selinger 2001-2013
</metadata>
<g transform="translate(0.000000,512.000000) scale(0.100000,-0.100000)"
fill="#000000" stroke="none">
<path d="M2390 4827 c-3 -3 -37 -8 -75 -11 -39 -4 -82 -8 -95 -11 -13 -3 -42
-7 -65 -11 -163 -24 -407 -104 -592 -194 -249 -122 -417 -242 -614 -439 -377
-379 -594 -824 -656 -1351 -15 -129 -8 -491 11 -586 2 -12 7 -39 10 -60 5 -32
25 -117 51 -224 14 -56 61 -186 99 -273 94 -215 194 -378 345 -562 63 -76 285
-287 366 -347 50 -37 95 -71 100 -75 27 -21 189 -115 260 -151 163 -82 381
-159 530 -188 11 -2 43 -8 70 -14 49 -10 61 -12 180 -27 79 -10 412 -10 495 0
36 5 82 10 103 13 105 12 393 92 512 142 179 75 377 189 528 304 91 69 318
291 391 383 62 77 182 260 230 349 84 157 147 321 195 508 31 122 38 159 57
294 9 66 12 426 4 489 -25 183 -26 189 -55 310 -42 177 -143 439 -210 545 -14
22 -25 42 -25 46 0 3 -28 48 -62 101 -290 448 -742 790 -1243 941 -99 30 -211
57 -270 66 -16 2 -43 7 -60 10 -16 3 -48 8 -70 11 -51 8 -439 17 -445 12z"/>
</g>
</svg>
